<?xml version="1.0" standalone="no"?>
<!DOCTYPE svg PUBLIC "-//W3C//DTD SVG 20010904//EN" "http://www.w3.org/TR/2001/REC-SVG-20010904/DTD/svg10.dtd">
<!-- Created using Krita: https://krita.org -->
<svg xmlns="http://www.w3.org/2000/svg" 
    xmlns:xlink="http://www.w3.org/1999/xlink"
    xmlns:krita="http://krita.org/namespaces/svg/krita"
    xmlns:sodipodi="http://sodipodi.sourceforge.net/DTD/sodipodi-0.dtd"
    width="921.6pt"
    height="518.4pt"
    viewBox="0 0 921.6 518.4">
<defs/>
<rect id="shape0" transform="translate(-55.44, -61.2)" fill="#21005b" fill-rule="evenodd" width="1195.92" height="619.92"/><path id="shape1" transform="translate(164.640004521773, 215.571434492014)" fill="#5400e3" fill-rule="evenodd" stroke="#5400e3" stroke-width="9.6" stroke-linecap="square" stroke-linejoin="bevel" d="M0 318.669C187.84 201.549 340.32 153.389 457.44 174.189C633.12 205.389 639.84 15.3086 731.04 6.18857C791.84 0.108571 825.28 -1.49143 831.36 1.38857L814.08 324.429C814.08 324.429 542.72 322.509 0 318.669Z" sodipodi:nodetypes="czzccc"/><path id="shape2" transform="translate(-48.9600013446673, -63.3600017401576)" fill="#5400e3" fill-rule="evenodd" stroke="#5400e3" stroke-width="9.6" stroke-linecap="square" stroke-linejoin="bevel" d="M0 357.6C156.16 339.04 212.16 276.16 168 168.96C101.76 8.16 428.16 233.28 397.92 116.64C377.76 38.88 366.4 0 363.84 0L8.16 11.04C8.16 11.04 5.44 126.56 0 357.6Z" sodipodi:nodetypes="czzccc"/><path id="shape3" transform="translate(273.600007514317, 289.974536695895)" fill="#1d3dfd" fill-rule="evenodd" stroke="#1d3dfd" stroke-width="9.6" stroke-linecap="square" stroke-linejoin="bevel" d="M0 254.345C133.12 158.985 256 126.345 368.64 156.425C537.6 201.545 550.08 -32.2145 734.88 3.78547C858.08 27.7855 856 108.105 728.64 244.745L624 338.825C624 338.825 416 310.665 0 254.345Z" sodipodi:nodetypes="czzccc"/><path id="shape4" transform="translate(-78.7200021620141, -118.080003243021)" fill="#1d3dfd" fill-rule="evenodd" stroke="#1d3dfd" stroke-width="9.6" stroke-linecap="square" stroke-linejoin="bevel" d="M24 398.88C147.804 362.342 195.484 296.422 167.04 201.12C124.373 58.1675 400.361 213.885 394.08 170.4C389.892 141.41 335.812 84.6097 231.84 0L3.36 7.68L0 268.8C15.36 351.68 23.36 395.04 24 398.88Z" sodipodi:nodetypes="czzcccc"/><path id="shape5" transform="translate(403.20001107373, 363.251215398188)" fill="#1e74fd" fill-rule="evenodd" stroke="#1e74fd" stroke-width="9.6" stroke-linecap="square" stroke-linejoin="bevel" d="M0 194.029C42.56 135.469 145.92 116.109 310.08 135.949C556.32 165.709 498.24 -105.491 609.6 46.6688C720.96 198.829 610.08 250.669 599.52 252.109C588.96 253.549 588.96 253.549 0 194.029Z" sodipodi:nodetypes="czzcc"/><path id="shape6" transform="translate(-115.330437950114, -184.423085120865)" fill="#1e74fd" fill-rule="evenodd" stroke="#1e74fd" stroke-width="9.6" stroke-linecap="square" stroke-linejoin="bevel" d="M39.4904 434.503C154.33 412.949 197.21 360.789 168.13 278.023C139.05 195.257 190.41 169.337 322.21 200.263C393.07 219.654 387.15 181.094 304.45 84.5831C221.751 -11.9283 120.311 -25.8483 0.130435 42.8231C-1.46957 44.4231 11.6504 174.983 39.4904 434.503Z" sodipodi:nodetypes="czczcc"/><path id="shape7" transform="translate(443.520012181104, -121.920003348485)" fill="#5400e3" fill-rule="evenodd" stroke="#5400e3" stroke-width="9.6" stroke-linecap="square" stroke-linejoin="bevel" d="M535.2 401.28C425.76 320.64 318.24 283.36 212.64 289.44C107.04 295.52 36.16 226.08 0 81.12L49.44 0L571.68 14.88C571.68 14.88 559.52 143.68 535.2 401.28Z" sodipodi:nodetypes="czcccc"/><path id="shape8" transform="translate(460.8, -74.4000020433669)" fill="#1d3dfd" fill-rule="evenodd" stroke="#1d3dfd" stroke-width="9.6" stroke-linecap="square" stroke-linejoin="bevel" d="M524.16 300.48C340.792 238.437 222.552 215.077 169.44 230.4C116.328 245.723 59.8477 182.043 0 39.36L529.44 0C518.24 11.84 516.48 112 524.16 300.48Z" sodipodi:nodetypes="czccc"/><path id="shape9" transform="translate(467.908008913516, -65.5224978941046)" fill="#1e74fd" fill-rule="evenodd" stroke="#1e74fd" stroke-width="9.6" stroke-linecap="square" stroke-linejoin="bevel" d="M547.292 288.242C357.88 218.328 234.36 189.048 176.732 200.402C119.104 211.757 72.8641 170.477 38.012 76.5625C1.21198 20.5625 -8.86802 -4.7175 7.77198 0.7225C24.412 6.1625 194.812 8.7225 518.972 8.4025C516.732 16.7225 526.172 110.002 547.292 288.242Z" sodipodi:nodetypes="czczcc"/><path id="shape10" transform="translate(512.639983523733, -92.6399970225472)" fill="#1da8fd" fill-rule="evenodd" stroke="#1da8fd" stroke-width="9.6" stroke-linecap="square" stroke-linejoin="bevel" d="M557.28 291.36C315.36 229.6 169.44 198.56 119.52 198.24C69.6 197.92 29.76 156.48 0 73.92L197.76 0L515.04 23.52C515.04 23.52 529.12 112.8 557.28 291.36Z" sodipodi:nodetypes="czcccc"/><path id="shape11" transform="translate(539.999982644382, -99.3599968065662)" fill="#1e74fd" fill-rule="evenodd" stroke="#1e74fd" stroke-width="9.6" stroke-linecap="square" stroke-linejoin="bevel" d="M501.6 240.96C220.96 206.4 68.16 177.44 43.2 154.08C18.24 130.72 3.84 88 0 25.92L473.76 0C473.76 0 483.04 80.32 501.6 240.96Z" sodipodi:nodetypes="czccc"/><path id="shape12" transform="translate(565.919981811312, -134.399995680379)" fill="#1d3dfd" fill-rule="evenodd" stroke="#1d3dfd" stroke-width="9.6" stroke-linecap="square" stroke-linejoin="bevel" d="M465.6 255.36C227.2 235.52 84 207.52 36 171.36C-12 135.2 -12 78.08 36 0L432.96 49.44C432.96 49.44 443.84 118.08 465.6 255.36Z" sodipodi:nodetypes="czccc"/><path id="shape13" transform="translate(634.030877325774, -98.3999968374206)" fill="#5400e3" fill-rule="evenodd" stroke="#5400e3" stroke-width="9.6" stroke-linecap="square" stroke-linejoin="bevel" d="M398.449 196.32C135.089 183.52 2.2891 157.44 0.0491023 118.08C-2.1909 78.72 72.2091 39.36 223.249 0L397.489 111.84C397.489 111.84 397.809 140 398.449 196.32Z" sodipodi:nodetypes="czccc"/><path id="shape14" transform="translate(722.699845591016, -44.1599985806961)" fill="#21005b" fill-rule="evenodd" stroke="#21005b" stroke-width="9.6" stroke-linecap="square" stroke-linejoin="bevel" d="M271.86 119.52C251.7 119.04 -78.5399 107.04 17.4601 61.44C81.4601 31.04 163.22 10.56 262.74 0C262.74 0 265.78 39.84 271.86 119.52Z" sodipodi:nodetypes="czcc"/>
</svg>
